HIERARCHY
ROOT Hips
{
 OFFSET 0.000000 0.000000 0.000000
 CHANNELS 6 Xposition Yposition Zposition Yrotation Xrotation Zrotation
 JOINT Chest
 {
  OFFSET 0.000000 11.395451 -0.039534
  CHANNELS 3 Yrotation Xrotation Zrotation
  JOINT Chest2
  {
   OFFSET 0.000000 9.398669 0.071813
   CHANNELS 3 Yrotation Xrotation Zrotation
   JOINT Chest3
   {
    OFFSET 0.000000 8.489801 0.000000
    CHANNELS 3 Yrotation Xrotation Zrotation
    JOINT Chest4
    {
     OFFSET 0.000000 8.489801 0.000000
     CHANNELS 3 Yrotation Xrotation Zrotation
     JOINT Neck
     {
      OFFSET 0.000000 12.404889 0.000000
      CHANNELS 3 Yrotation Xrotation Zrotation
      JOINT Head
      {
       OFFSET 0.000000 8.903270 0.092239
       CHANNELS 3 Yrotation Xrotation Zrotation
       End Site
       {
        OFFSET 0.000000 17.592497 0.007158
       }
      }
     }
     JOINT RightCollar
     {
      OFFSET -3.196775 6.966722 0.000000
      CHANNELS 3 Yrotation Xrotation Zrotation
      JOINT RightShoulder
      {
       OFFSET -15.955896 0.000000 0.000000
       CHANNELS 3 Yrotation Xrotation Zrotation
       JOINT RightElbow
       {
        OFFSET -24.792472 0.000000 0.000000
        CHANNELS 3 Yrotation Xrotation Zrotation
        JOINT RightWrist
        {
         OFFSET -20.900115 0.000000 0.025002
         CHANNELS 3 Yrotation Xrotation Zrotation
         End Site
         {
          OFFSET -16.056692 0.000000 0.000000
         }
        }
       }
      }
     }
     JOINT LeftCollar
     {
      OFFSET 3.196775 6.966722 0.000000
      CHANNELS 3 Yrotation Xrotation Zrotation
      JOINT LeftShoulder
      {
       OFFSET 15.955896 0.000000 0.000000
       CHANNELS 3 Yrotation Xrotation Zrotation
       JOINT LeftElbow
       {
        OFFSET 24.792472 0.000000 0.000000
        CHANNELS 3 Yrotation Xrotation Zrotation
        JOINT LeftWrist
        {
         OFFSET 20.900115 0.000000 0.025002
         CHANNELS 3 Yrotation Xrotation Zrotation
         End Site
         {
          OFFSET 16.056692 0.000000 0.000000
         }
        }
       }
      }
     }
    }
   }
  }
 }
 JOINT RightHip
 {
  OFFSET -9.568995 0.193718 0.019767
  CHANNELS 3 Yrotation Xrotation Zrotation
  JOINT RightKnee
  {
   OFFSET 0.000000 -56.649296 0.015402
   CHANNELS 3 Yrotation Xrotation Zrotation
   JOINT RightAnkle
   {
    OFFSET 0.000000 -41.365147 0.021264
    CHANNELS 3 Yrotation Xrotation Zrotation
    JOINT RightToe
    {
     OFFSET 0.000000 -7.465940 17.672538
     CHANNELS 3 Yrotation Xrotation Zrotation
     End Site
     {
      OFFSET 0.000000 -1.736315 7.837145
     }
    }
   }
  }
 }
 JOINT LeftHip
 {
  OFFSET 9.568995 0.193718 0.019767
  CHANNELS 3 Yrotation Xrotation Zrotation
  JOINT LeftKnee
  {
   OFFSET 0.000000 -56.649296 0.015402
   CHANNELS 3 Yrotation Xrotation Zrotation
   JOINT LeftAnkle
   {
    OFFSET 0.000000 -41.365147 0.021264
    CHANNELS 3 Yrotation Xrotation Zrotation
    JOINT LeftToe
    {
     OFFSET 0.000000 -7.465940 17.672538
     CHANNELS 3 Yrotation Xrotation Zrotation
     End Site
     {
      OFFSET 0.000000 -1.736315 7.837145
     }
    }
   }
  }
 }
}
MOTION
Frames: 5
Frame Time: 0.016667
8.407295 102.698990 418.750299 161.344751 0.240425 -5.669554 0.205384 6.446350 3.399942 0.043851 2.866540 1.505792 0.043858 2.866556 1.505805 0.025821 2.150044 1.128918 -0.935297 13.840455 0.679501 -2.035783 -10.463071 1.654636 1.013429 3.885084 7.379863 18.141967 -19.164492 41.714312 39.558940 -36.015240 24.726106 -5.093125 -20.566760 7.335313 1.492953 5.530585 -4.553003 -3.769080 -20.927932 -51.689844 -21.215737 -51.770541 -50.714000 14.066118 -18.484569 0.464394 0.857129 -4.005454 10.261415 -7.749466 27.345045 -1.106003 9.286994 -22.212203 -0.747273 -0.013562 -0.124096 -2.266303 13.364348 -26.564611 -2.294933 3.099269 5.163483 -0.496150 4.729608 -4.324982 -3.411639 -0.000000 -0.000000 -0.000000
8.877512 102.368942 417.294692 160.929487 0.402947 -5.875257 0.444328 6.493051 3.369436 0.149969 2.889061 1.488872 0.149982 2.889090 1.488891 0.105424 2.167204 1.115730 -0.934577 13.805820 0.703155 -2.044642 -10.526818 1.699847 1.037321 4.237090 7.204177 17.690055 -19.178917 41.794536 39.615658 -35.990268 24.942333 -4.537093 -20.769162 7.302820 1.617796 5.641982 -4.516911 -4.044453 -20.872592 -51.597690 -21.813456 -51.646923 -50.562453 13.940846 -18.475720 0.421196 1.130409 -3.925888 10.298367 -7.809748 28.744111 -0.953332 9.414564 -23.096451 -0.590360 -0.050513 -0.371437 -5.434499 11.858966 -27.562692 -1.788492 2.977586 8.304626 -0.130889 2.224719 -4.880819 0.079694 -0.000000 0.000000 -0.000000
9.324858 102.055679 415.810991 160.192942 0.569535 -5.944775 0.771742 6.539209 3.222099 0.296941 2.911609 1.418747 0.296941 2.911609 1.418747 0.215895 2.184410 1.062416 -0.893459 13.768316 0.747385 -1.985497 -10.596368 1.767875 1.029881 4.523362 7.104521 17.433600 -19.138335 41.912209 39.577077 -35.942843 25.095994 -3.953223 -20.979655 7.270458 1.639126 5.759237 -4.460133 -4.062794 -20.718928 -51.547203 -22.513858 -51.590984 -50.420101 13.784862 -18.440209 0.466505 1.326092 -4.038051 10.038581 -7.790459 30.599013 -0.731777 9.903651 -23.789008 -0.298629 -0.073091 -1.031148 -8.121860 10.828872 -28.146225 -1.364792 2.640033 10.342665 0.112913 1.042716 -4.232454 2.669976 0.000000 0.000000 0.000000
9.767537 101.769874 414.244483 158.935539 0.695409 -5.829185 1.242993 6.557482 2.902374 0.510336 2.921931 1.270071 0.510297 2.921853 1.270029 0.376547 2.192434 0.949854 -0.781082 13.772343 0.839510 -1.809904 -10.589391 1.897008 0.968382 4.616712 7.189738 17.501556 -18.832796 42.057395 39.366767 -35.850722 25.159486 -3.326640 -21.222887 7.228556 1.532438 5.896198 -4.354690 -3.618881 -20.380118 -51.628442 -23.336091 -51.541224 -50.332923 13.550573 -18.366994 0.663049 1.504643 -4.271011 9.378344 -7.581934 32.986369 -0.332390 10.881088 -24.468162 -0.079278 -0.048939 -2.014275 -9.480278 10.767804 -27.853886 -1.178517 1.505154 10.065338 0.274742 2.408481 -1.625654 3.196732 0.000000 0.000000 0.000000
10.187345 101.500854 412.649881 157.357994 0.833763 -5.579934 1.800020 6.571523 2.463433 0.763609 2.929956 1.067373 0.763562 2.929869 1.067328 0.567402 2.198709 0.796636 -0.627907 13.772642 0.951656 -1.565354 -10.589887 2.047790 0.877111 4.646372 7.351113 17.770655 -18.475213 42.230235 39.057958 -35.739168 25.163087 -2.673186 -21.476118 7.187558 1.323722 6.042825 -4.228497 -2.916032 -19.948068 -51.756662 -24.263766 -51.554081 -50.252892 13.286492 -18.266843 0.947098 1.608851 -4.718724 8.432925 -7.278124 35.835366 0.086956 12.254468 -24.933986 0.214794 0.035370 -3.396370 -10.355390 11.218205 -27.162831 -1.140733 0.135191 8.685487 0.496011 4.925464 1.946571 2.720705 0.000000 0.000000 0.000000
